<?xml version="1.0" encoding="UTF-8"?>
<svg xmlns="http://www.w3.org/2000/svg" xmlns:xlink="http://www.w3.org/1999/xlink" version="1.1" viewBox="0 0 1366 768">
  <!-- Generator: Adobe Illustrator 29.3.1, SVG Export Plug-In . SVG Version: 2.1.0 Build 151)  -->
  <defs>
    <style>
      .st0 {
        fill: url(#_未命名的渐变_4);
      }

      .st1 {
        fill: #24b54c;
      }
    </style>
    <linearGradient id="_未命名的渐变_4" data-name="未命名的渐变 4" x1="421.75" y1="355.23" x2="871.75" y2="355.23" gradientUnits="userSpaceOnUse">
      <stop offset="0" stop-color="#cce0f4"/>
      <stop offset=".06" stop-color="#c2dcf2"/>
      <stop offset=".15" stop-color="#a9d2ee"/>
      <stop offset=".27" stop-color="#7fc2e7"/>
      <stop offset=".4" stop-color="#46abdd"/>
      <stop offset=".49" stop-color="#1e9cd7"/>
      <stop offset=".87" stop-color="#0075be"/>
      <stop offset=".99" stop-color="#005b97"/>
    </linearGradient>
  </defs>
  <g id="_图层_1" data-name="图层_1">
    <path class="st0" d="M692.59,127.61c91.68,9.84,185.28,73.55,178.85,110.62-3.67,21.18-39.46,30.6-44.77,32-85.62,22.54-135.2-84.95-220.09-72.1-51.53,7.79-94.17,56.64-109.03,107.04-18.1,61.37,3.68,132.4,52.8,170.99,53.15,41.78,143.02,49.92,175.1,2.22,23.29-34.64,10.04-89.72-11.04-119.07-5.52-7.68-15.05-20.54-29.07-21.4-16.22-1-31.02,14.51-37.56,27.7-21.78,43.89,25.52,106.89,23.01,108.3-2.63,1.48-66.49-61.45-43.19-120.63,12.71-32.29,44.24-45.41,54.07-49.49,39.38-16.38,75.42-3.34,88.46,1.38,9.85,3.56,76.16,28.79,90.86,90.66,13.7,57.67-22.16,127.3-90.86,158.67,57.71-43.03,74.7-115.76,48.47-163.7-24.03-43.89-75.98-51.85-83.59-52.89,7.24,5.36,59.47,45.34,60.57,110.81.07,3.97.23,44.87-24.95,78.29-49.45,65.65-179.03,79.02-262.18,17.11-88.79-66.12-114.37-210.08-53.3-311.99,71.82-119.83,223.17-106.05,237.45-104.52Z"/>
  </g>
  <g id="_图层_2" data-name="图层_2">
    <path class="st1" d="M868.81,225.21c1.17-3.35-183.33-152.11-306.95-56.62-53.21,41.1-86.85,121.07-70.47,187.92,23.69,96.72,148.39,149.88,145.9,153.74-2,3.1-70.57-49.81-85.19-35.49-8.87,8.69,10.67,36.39,19.21,60.29,13.36,37.4,76.86,58.42,126.96,45.81,12.11-3.05,46.16-12.27,62.26-42.23,26.42-49.17-19.92-118.53-23.41-117.23-3.31,1.23,59.2,110.54,25.16,148.56-31.41,35.07-131.55,7.52-193.06-47.99-70.96-64.04-77.16-153.2-77.82-165.45-.68-12.53-5.18-121,58.93-172.65,104.96-84.56,317.27,44.85,318.49,41.35Z"/>
  </g>
</svg>